<?xml version="1.0" standalone="no"?>
<!DOCTYPE svg PUBLIC "-//W3C//DTD SVG 20010904//EN"
 "http://www.w3.org/TR/2001/REC-SVG-20010904/DTD/svg10.dtd">
<svg version="1.0" xmlns="http://www.w3.org/2000/svg"
 width="708.000000pt" height="313.000000pt" viewBox="0 0 708.000000 313.000000"
 preserveAspectRatio="xMidYMid meet">

<g transform="translate(0.000000,313.000000) scale(0.100000,-0.100000)"
fill="#000000" stroke="none">
<path d="M1690 2885 l74 -75 116 0 115 0 310 -310 310 -310 97 0 98 0 0 310 0
310 388 0 388 0 34 35 34 35 153 -152 153 -153 -192 -192 -193 -193 120 0 120
0 132 132 133 133 133 -133 132 -132 120 0 120 0 -193 193 -192 192 153 153
153 152 34 -35 34 -35 371 0 371 0 74 75 74 75 -445 0 -445 0 -34 -35 -34 -35
-36 35 c-30 29 -43 35 -80 35 -44 0 -47 -2 -177 -132 l-133 -133 -133 133
-132 132 -503 0 -502 0 0 -72 0 -72 -73 72 c-54 54 -79 72 -100 72 l-27 0 0
-262 0 -263 -263 263 -262 262 -235 0 -234 0 74 -75z"/>
<path d="M1810 2460 l0 -270 95 0 95 0 0 270 0 270 -95 0 -95 0 0 -270z"/>
<path d="M2850 2460 l0 -270 347 0 347 0 -74 75 -74 75 -178 0 -178 0 0 75 0
75 98 0 97 0 80 80 80 80 -178 0 -177 0 0 40 0 40 -95 0 -95 0 0 -270z"/>
<path d="M4850 2460 l0 -270 95 0 95 0 0 270 0 270 -95 0 -95 0 0 -270z"/>
<path d="M650 1980 l0 -30 2895 0 2895 0 0 30 0 30 -2895 0 -2895 0 0 -30z"/>
<path d="M775 1610 l-140 -140 634 0 635 0 -135 139 -134 139 -360 1 -360 1
-140 -140z"/>
<path d="M2105 1610 l-140 -140 175 0 175 0 560 -560 560 -560 212 0 213 0 0
490 0 490 -175 0 -175 0 0 -312 0 -313 -523 523 -522 522 -110 0 -110 0 -140
-140z"/>
<path d="M3220 1693 c30 -32 91 -95 135 -140 l80 -83 315 0 315 0 108 -108
107 -107 0 -453 0 -452 175 0 175 0 0 492 0 493 -207 207 -208 208 -525 0
-524 0 54 -57z"/>
<path d="M4485 1610 l140 -140 105 0 105 0 108 -108 107 -107 0 -453 0 -452
175 0 175 0 0 493 0 492 -208 208 -207 207 -320 0 -320 0 140 -140z"/>
<path d="M5262 1610 l133 -139 705 -1 705 0 140 140 140 140 -978 0 -979 0
134 -140z"/>
<path d="M285 1120 l-210 -210 280 -280 280 -280 425 0 425 0 210 210 210 210
-210 210 -210 210 -110 0 -110 0 -140 -140 -140 -140 140 0 141 0 69 -70 69
-70 -69 -70 -69 -70 -241 0 -240 0 -140 140 -140 140 210 210 210 210 -215 0
-215 0 -210 -210z"/>
<path d="M1970 840 l0 -490 175 0 175 0 0 175 0 175 317 0 318 0 -140 140
-140 140 -177 0 -178 0 0 175 0 175 -175 0 -175 0 0 -490z"/>
<path d="M5470 840 l0 -490 632 0 633 0 -140 140 -140 140 -317 0 -318 0 0
140 0 140 178 0 177 0 140 140 140 140 -318 0 -317 0 0 70 0 70 -175 0 -175 0
0 -490z"/>
</g>
</svg>
